<?xml version="1.0" ?><svg viewBox="0 0 64 64" xmlns="http://www.w3.org/2000/svg"><title/><g data-name="Layer 14" id="Layer_14"><path d="M62.11,8.25H1.89A1.74,1.74,0,0,0,.14,10V44.83a1.75,1.75,0,0,0,1.75,1.75H62.11a1.75,1.75,0,0,0,1.75-1.75V10A1.74,1.74,0,0,0,62.11,8.25ZM59.7,41.53a.88.88,0,0,1-.89.88H5.19a.88.88,0,0,1-.89-.88V13.29a.88.88,0,0,1,.89-.88H58.81a.88.88,0,0,1,.89.88Zm4.16,8.23v2.62a1.29,1.29,0,0,1-1.29,1.29H40.84a3.09,3.09,0,0,0-2.2.93l-.21.22a3.09,3.09,0,0,1-2.2.93H27.77a3.09,3.09,0,0,1-2.2-.93l-.21-.22a3.09,3.09,0,0,0-2.2-.93H1.43A1.29,1.29,0,0,1,.14,52.38V49.76a1.29,1.29,0,0,1,1.29-1.29H25.24a3.06,3.06,0,0,1,2.2.94l.21.21a3,3,0,0,0,2.2.93h4.3a3,3,0,0,0,2.2-.93l.21-.21a3.06,3.06,0,0,1,2.2-.94H62.57A1.29,1.29,0,0,1,63.86,49.76Zm-24.5-28.3a9.61,9.61,0,0,0-5-1.6l0,.15c2.83.76,3.93,1.69,4.29,2.07,0,0,0,.09,0,.06a17.39,17.39,0,0,0-14,0c-.05,0-.09,0-.06-.06C24.87,21.7,26,20.77,28.8,20l0-.15a9.61,9.61,0,0,0-5,1.6.69.69,0,0,0-.24.27c-.45,1-2.69,6.15-2.45,10.44A6.4,6.4,0,0,0,26.48,35a.16.16,0,0,0,.14-.07l.88-1.13a.16.16,0,0,0,0-.24A11.05,11.05,0,0,1,24.1,31a15.63,15.63,0,0,0,7.49,2.38A15.62,15.62,0,0,0,39.07,31a11.15,11.15,0,0,1-3.35,2.5.16.16,0,0,0,0,.24l.88,1.13a.17.17,0,0,0,.14.07c4-.22,5.36-2.8,5.36-2.8.24-4.29-2-9.44-2.45-10.44A.62.62,0,0,0,39.36,21.46Zm-11.12,9a1.93,1.93,0,1,1,1.92-1.92A1.92,1.92,0,0,1,28.24,30.42Zm6.61,0a1.93,1.93,0,1,1,1.92-1.92A1.92,1.92,0,0,1,34.85,30.42Z"/></g></svg>